<mxfile host="app.diagrams.net" agent="Mozilla/5.0 (Windows NT 10.0; Win64; x64; rv:139.0) Gecko/20100101 Firefox/139.0" version="27.0.3">
  <diagram name="ページ1" id="ZPgmJF8vVga--MkWZdOu">
    <mxGraphModel dx="1665" dy="751" grid="1" gridSize="10" guides="1" tooltips="1" connect="1" arrows="1" fold="1" page="1" pageScale="1" pageWidth="827" pageHeight="1169" math="0" shadow="0">
      <root>
        <mxCell id="0" />
        <mxCell id="1" parent="0" />
        <mxCell id="Czp6lD5ZuoxzQtUtrd-K-1" value="CardGameManager" style="rounded=0;whiteSpace=wrap;html=1;align=left;verticalAlign=top;" parent="1" vertex="1">
          <mxGeometry x="40" y="170" width="940" height="820" as="geometry" />
        </mxCell>
        <mxCell id="Czp6lD5ZuoxzQtUtrd-K-18" value="&lt;div&gt;CardData(Scriptable Object)&lt;/div&gt;&lt;div&gt;&lt;br&gt;&lt;/div&gt;現状は適当な値を設定しているが、インスペクター上でCardGameManagerに対して設定できるようにする予定。" style="rounded=0;whiteSpace=wrap;html=1;align=left;verticalAlign=top;" parent="1" vertex="1">
          <mxGeometry x="414" y="600" width="260" height="120" as="geometry" />
        </mxCell>
        <mxCell id="Czp6lD5ZuoxzQtUtrd-K-21" value="&lt;div&gt;CardsBase&lt;/div&gt;&lt;div&gt;カードリストごとに必要な処理を定義しており、それを継承させてる。&lt;/div&gt;" style="rounded=0;whiteSpace=wrap;html=1;align=left;verticalAlign=top;" parent="1" vertex="1">
          <mxGeometry x="414" y="735" width="260" height="105" as="geometry" />
        </mxCell>
        <mxCell id="Czp6lD5ZuoxzQtUtrd-K-23" value="ICards(インターフェース)&lt;br&gt;&lt;div&gt;必要な処理が定義されていることを保証している。&lt;/div&gt;&lt;div&gt;&lt;div&gt;CardsBaseで処理は定義されているため、基本的にCardBaseを継承していれば問題ない。&lt;/div&gt;&lt;/div&gt;" style="rounded=0;whiteSpace=wrap;html=1;align=left;verticalAlign=top;" parent="1" vertex="1">
          <mxGeometry x="414" y="850" width="260" height="120" as="geometry" />
        </mxCell>
        <mxCell id="Czp6lD5ZuoxzQtUtrd-K-37" value="BattleManager" style="rounded=0;whiteSpace=wrap;html=1;align=left;verticalAlign=top;" parent="1" vertex="1">
          <mxGeometry x="700" y="215" width="260" height="55" as="geometry" />
        </mxCell>
        <mxCell id="Czp6lD5ZuoxzQtUtrd-K-40" value="" style="group" parent="1" vertex="1" connectable="0">
          <mxGeometry x="60" y="590" width="270" height="380" as="geometry" />
        </mxCell>
        <mxCell id="Czp6lD5ZuoxzQtUtrd-K-5" value="CardManager" style="rounded=0;whiteSpace=wrap;html=1;align=left;verticalAlign=top;" parent="Czp6lD5ZuoxzQtUtrd-K-40" vertex="1">
          <mxGeometry width="270" height="380" as="geometry" />
        </mxCell>
        <mxCell id="Czp6lD5ZuoxzQtUtrd-K-8" value="&lt;div&gt;ICardProvider&lt;/div&gt;&lt;div&gt;カードの情報を提供する機能を提供する&lt;/div&gt;" style="rounded=0;whiteSpace=wrap;html=1;align=left;verticalAlign=top;" parent="Czp6lD5ZuoxzQtUtrd-K-40" vertex="1">
          <mxGeometry x="10" y="30" width="120" height="140" as="geometry" />
        </mxCell>
        <mxCell id="Czp6lD5ZuoxzQtUtrd-K-9" value="&lt;div&gt;ICardManipulator&lt;/div&gt;&lt;div&gt;カードを操作する機能を提供する&lt;/div&gt;" style="rounded=0;whiteSpace=wrap;html=1;align=left;verticalAlign=top;" parent="Czp6lD5ZuoxzQtUtrd-K-40" vertex="1">
          <mxGeometry x="140" y="30" width="120" height="140" as="geometry" />
        </mxCell>
        <mxCell id="Czp6lD5ZuoxzQtUtrd-K-14" value="Deck" style="rounded=0;whiteSpace=wrap;html=1;align=left;verticalAlign=top;" parent="Czp6lD5ZuoxzQtUtrd-K-40" vertex="1">
          <mxGeometry x="10" y="230" width="250" height="30" as="geometry" />
        </mxCell>
        <mxCell id="Czp6lD5ZuoxzQtUtrd-K-15" value="DiscardPile" style="rounded=0;whiteSpace=wrap;html=1;align=left;verticalAlign=top;" parent="Czp6lD5ZuoxzQtUtrd-K-40" vertex="1">
          <mxGeometry x="10" y="330" width="250" height="30" as="geometry" />
        </mxCell>
        <mxCell id="Czp6lD5ZuoxzQtUtrd-K-16" value="DrawPile" style="rounded=0;whiteSpace=wrap;html=1;align=left;verticalAlign=top;" parent="Czp6lD5ZuoxzQtUtrd-K-40" vertex="1">
          <mxGeometry x="10" y="180" width="250" height="30" as="geometry" />
        </mxCell>
        <mxCell id="Czp6lD5ZuoxzQtUtrd-K-17" value="Field" style="rounded=0;whiteSpace=wrap;html=1;align=left;verticalAlign=top;" parent="Czp6lD5ZuoxzQtUtrd-K-40" vertex="1">
          <mxGeometry x="10" y="280" width="250" height="30" as="geometry" />
        </mxCell>
        <mxCell id="Czp6lD5ZuoxzQtUtrd-K-41" value="" style="group" parent="1" vertex="1" connectable="0">
          <mxGeometry x="100" y="230" width="270" height="190" as="geometry" />
        </mxCell>
        <mxCell id="Czp6lD5ZuoxzQtUtrd-K-4" value="StateMachine" style="rounded=0;whiteSpace=wrap;html=1;align=left;verticalAlign=top;" parent="Czp6lD5ZuoxzQtUtrd-K-41" vertex="1">
          <mxGeometry width="270" height="190" as="geometry" />
        </mxCell>
        <mxCell id="Czp6lD5ZuoxzQtUtrd-K-6" value="各State" style="rounded=0;whiteSpace=wrap;html=1;align=left;verticalAlign=top;" parent="Czp6lD5ZuoxzQtUtrd-K-41" vertex="1">
          <mxGeometry x="20" y="40" width="190" height="130" as="geometry" />
        </mxCell>
        <mxCell id="Czp6lD5ZuoxzQtUtrd-K-10" value="" style="endArrow=classic;html=1;rounded=0;exitX=0.5;exitY=1;exitDx=0;exitDy=0;entryX=0.5;entryY=0;entryDx=0;entryDy=0;" parent="1" source="Czp6lD5ZuoxzQtUtrd-K-6" target="Czp6lD5ZuoxzQtUtrd-K-8" edge="1">
          <mxGeometry width="50" height="50" relative="1" as="geometry">
            <mxPoint x="470" y="420" as="sourcePoint" />
            <mxPoint x="520" y="370" as="targetPoint" />
          </mxGeometry>
        </mxCell>
        <mxCell id="Czp6lD5ZuoxzQtUtrd-K-11" value="" style="endArrow=classic;html=1;rounded=0;entryX=0.5;entryY=0;entryDx=0;entryDy=0;" parent="1" target="Czp6lD5ZuoxzQtUtrd-K-9" edge="1">
          <mxGeometry width="50" height="50" relative="1" as="geometry">
            <mxPoint x="220" y="400" as="sourcePoint" />
            <mxPoint x="170" y="250" as="targetPoint" />
          </mxGeometry>
        </mxCell>
        <mxCell id="Czp6lD5ZuoxzQtUtrd-K-19" value="" style="endArrow=classic;html=1;rounded=0;exitX=0;exitY=0.5;exitDx=0;exitDy=0;entryX=0.75;entryY=1;entryDx=0;entryDy=0;" parent="1" source="Czp6lD5ZuoxzQtUtrd-K-18" target="Czp6lD5ZuoxzQtUtrd-K-4" edge="1">
          <mxGeometry width="50" height="50" relative="1" as="geometry">
            <mxPoint x="470" y="420" as="sourcePoint" />
            <mxPoint x="520" y="370" as="targetPoint" />
          </mxGeometry>
        </mxCell>
        <mxCell id="Czp6lD5ZuoxzQtUtrd-K-24" value="" style="endArrow=classic;html=1;rounded=0;exitX=0;exitY=0.25;exitDx=0;exitDy=0;entryX=1;entryY=0;entryDx=0;entryDy=0;" parent="1" source="Czp6lD5ZuoxzQtUtrd-K-21" target="Czp6lD5ZuoxzQtUtrd-K-15" edge="1">
          <mxGeometry width="50" height="50" relative="1" as="geometry">
            <mxPoint x="440" y="485" as="sourcePoint" />
            <mxPoint x="339" y="500" as="targetPoint" />
          </mxGeometry>
        </mxCell>
        <mxCell id="Czp6lD5ZuoxzQtUtrd-K-25" value="" style="endArrow=classic;html=1;rounded=0;exitX=0;exitY=0.25;exitDx=0;exitDy=0;entryX=1;entryY=0;entryDx=0;entryDy=0;" parent="1" source="Czp6lD5ZuoxzQtUtrd-K-21" target="Czp6lD5ZuoxzQtUtrd-K-17" edge="1">
          <mxGeometry width="50" height="50" relative="1" as="geometry">
            <mxPoint x="450" y="495" as="sourcePoint" />
            <mxPoint x="349" y="510" as="targetPoint" />
          </mxGeometry>
        </mxCell>
        <mxCell id="Czp6lD5ZuoxzQtUtrd-K-26" value="" style="endArrow=classic;html=1;rounded=0;entryX=1;entryY=0;entryDx=0;entryDy=0;exitX=0;exitY=0.25;exitDx=0;exitDy=0;" parent="1" source="Czp6lD5ZuoxzQtUtrd-K-21" target="Czp6lD5ZuoxzQtUtrd-K-14" edge="1">
          <mxGeometry width="50" height="50" relative="1" as="geometry">
            <mxPoint x="430" y="560" as="sourcePoint" />
            <mxPoint x="359" y="520" as="targetPoint" />
          </mxGeometry>
        </mxCell>
        <mxCell id="Czp6lD5ZuoxzQtUtrd-K-27" value="" style="endArrow=classic;html=1;rounded=0;exitX=0;exitY=0.25;exitDx=0;exitDy=0;entryX=1;entryY=0;entryDx=0;entryDy=0;" parent="1" source="Czp6lD5ZuoxzQtUtrd-K-21" target="Czp6lD5ZuoxzQtUtrd-K-16" edge="1">
          <mxGeometry width="50" height="50" relative="1" as="geometry">
            <mxPoint x="470" y="515" as="sourcePoint" />
            <mxPoint x="369" y="530" as="targetPoint" />
          </mxGeometry>
        </mxCell>
        <mxCell id="Czp6lD5ZuoxzQtUtrd-K-38" value="" style="endArrow=classic;html=1;rounded=0;exitX=0;exitY=0.25;exitDx=0;exitDy=0;entryX=1;entryY=0;entryDx=0;entryDy=0;" parent="1" source="Czp6lD5ZuoxzQtUtrd-K-37" target="Czp6lD5ZuoxzQtUtrd-K-6" edge="1">
          <mxGeometry width="50" height="50" relative="1" as="geometry">
            <mxPoint x="440" y="510" as="sourcePoint" />
            <mxPoint x="340" y="325" as="targetPoint" />
          </mxGeometry>
        </mxCell>
        <mxCell id="Czp6lD5ZuoxzQtUtrd-K-49" value="" style="group" parent="1" vertex="1" connectable="0">
          <mxGeometry x="700" y="280" width="260" height="300" as="geometry" />
        </mxCell>
        <mxCell id="Czp6lD5ZuoxzQtUtrd-K-39" value="View" style="rounded=0;whiteSpace=wrap;html=1;align=left;verticalAlign=top;" parent="Czp6lD5ZuoxzQtUtrd-K-49" vertex="1">
          <mxGeometry width="260" height="300" as="geometry" />
        </mxCell>
        <mxCell id="Czp6lD5ZuoxzQtUtrd-K-43" value="&lt;div&gt;Selector(1, 2, 3, Passのボタン)&lt;/div&gt;&lt;div&gt;押されたときの処理はStateMachine 側で実装する&lt;/div&gt;" style="rounded=0;whiteSpace=wrap;html=1;align=left;verticalAlign=top;" parent="Czp6lD5ZuoxzQtUtrd-K-49" vertex="1">
          <mxGeometry x="10" y="30" width="216" height="80" as="geometry" />
        </mxCell>
        <mxCell id="Czp6lD5ZuoxzQtUtrd-K-44" value="&lt;div&gt;Continue(次に進むボタン)&lt;/div&gt;&lt;div&gt;押されたときの処理はStateMachine 側で実装する&lt;/div&gt;" style="rounded=0;whiteSpace=wrap;html=1;align=left;verticalAlign=top;" parent="Czp6lD5ZuoxzQtUtrd-K-49" vertex="1">
          <mxGeometry x="10" y="119.99666666666666" width="216" height="80" as="geometry" />
        </mxCell>
        <mxCell id="yIlV1XVanhR4geVr9BRl-8" value="" style="rounded=0;whiteSpace=wrap;html=1;align=left;verticalAlign=top;" vertex="1" parent="Czp6lD5ZuoxzQtUtrd-K-49">
          <mxGeometry x="10" y="209.99666666666667" width="216" height="80" as="geometry" />
        </mxCell>
        <mxCell id="yIlV1XVanhR4geVr9BRl-2" value="" style="shape=flexArrow;endArrow=classic;startArrow=classic;html=1;rounded=0;exitX=1;exitY=0.5;exitDx=0;exitDy=0;entryX=-0.023;entryY=0.406;entryDx=0;entryDy=0;entryPerimeter=0;" edge="1" parent="1" source="Czp6lD5ZuoxzQtUtrd-K-4" target="Czp6lD5ZuoxzQtUtrd-K-39">
          <mxGeometry width="100" height="100" relative="1" as="geometry">
            <mxPoint x="780" y="560" as="sourcePoint" />
            <mxPoint x="880" y="460" as="targetPoint" />
          </mxGeometry>
        </mxCell>
        <mxCell id="yIlV1XVanhR4geVr9BRl-7" value="UI とゲームデータのやり取り" style="edgeLabel;html=1;align=center;verticalAlign=middle;resizable=0;points=[];" vertex="1" connectable="0" parent="yIlV1XVanhR4geVr9BRl-2">
          <mxGeometry x="-0.0283" y="6" relative="1" as="geometry">
            <mxPoint as="offset" />
          </mxGeometry>
        </mxCell>
        <mxCell id="yIlV1XVanhR4geVr9BRl-5" value="" style="shape=flexArrow;endArrow=classic;startArrow=classic;html=1;rounded=0;exitX=1.005;exitY=0.708;exitDx=0;exitDy=0;entryX=-0.023;entryY=0.406;entryDx=0;entryDy=0;entryPerimeter=0;exitPerimeter=0;" edge="1" parent="1" source="Czp6lD5ZuoxzQtUtrd-K-6">
          <mxGeometry width="100" height="100" relative="1" as="geometry">
            <mxPoint x="370" y="360" as="sourcePoint" />
            <mxPoint x="694" y="448" as="targetPoint" />
          </mxGeometry>
        </mxCell>
        <mxCell id="yIlV1XVanhR4geVr9BRl-6" value="UI とゲームデータのやり取り" style="edgeLabel;html=1;align=center;verticalAlign=middle;resizable=0;points=[];" vertex="1" connectable="0" parent="yIlV1XVanhR4geVr9BRl-5">
          <mxGeometry x="0.1048" y="-3" relative="1" as="geometry">
            <mxPoint as="offset" />
          </mxGeometry>
        </mxCell>
      </root>
    </mxGraphModel>
  </diagram>
</mxfile>
